<?xml version="1.0" standalone="no"?><!DOCTYPE svg PUBLIC "-//W3C//DTD SVG 1.1//EN" "http://www.w3.org/Graphics/SVG/1.1/DTD/svg11.dtd"><svg t="1784257251012" class="icon" viewBox="0 0 1024 1024" version="1.1" xmlns="http://www.w3.org/2000/svg" p-id="3151" xmlns:xlink="http://www.w3.org/1999/xlink" width="200" height="200"><path d="M512 53.333333C258.688 53.333333 53.333333 258.688 53.333333 512S258.688 970.666667 512 970.666667 970.666667 765.312 970.666667 512 765.312 53.333333 512 53.333333z m0 64c217.962667 0 394.666667 176.704 394.666667 394.666667S729.962667 906.666667 512 906.666667 117.333333 729.962667 117.333333 512 294.037333 117.333333 512 117.333333z" fill="#ffffff" p-id="3152"></path><path d="M661.333333 554.666667a32 32 0 0 1 3.072 63.850666L661.333333 618.666667h-192a32 32 0 0 1-3.072-63.850667L469.333333 554.666667h192z" fill="#ffffff" p-id="3153"></path><path d="M458.666667 288a32 32 0 0 1 31.850666 28.928L490.666667 320v256a32 32 0 0 1-63.850667 3.072L426.666667 576V320a32 32 0 0 1 32-32z" fill="#ffffff" p-id="3154"></path></svg>