<?xml version="1.0" standalone="no"?><!DOCTYPE svg PUBLIC "-//W3C//DTD SVG 1.1//EN" "http://www.w3.org/Graphics/SVG/1.1/DTD/svg11.dtd"><svg t="1777689687065" class="icon" viewBox="0 0 1024 1024" version="1.1" xmlns="http://www.w3.org/2000/svg" p-id="4044" xmlns:xlink="http://www.w3.org/1999/xlink" width="200" height="200"><path d="M759.068444 483.299556l226.929778-215.580445a116.024889 116.024889 0 0 0 0-164.067555l-56.632889-56.604445a116.024889 116.024889 0 0 0-161.934222-2.076444L545.763556 255.431111 330.524444 25.429333 328.732444 23.608889a75.832889 75.832889 0 0 0-107.235555-0.455111L59.847111 184.746667a75.776 75.776 0 0 0-1.308444 105.443555l212.081777 226.588445-200.533333 190.492444a116.110222 116.110222 0 0 0-33.052444 57.628445L3.157333 909.653333A76.771556 76.771556 0 0 0 99.555556 1000.789333l139.548444-41.102222a116.650667 116.650667 0 0 0 47.160889-27.164444l197.688889-187.847111 238.165333 254.407111 1.763556 1.848889a75.832889 75.832889 0 0 0 107.264 0.455111l161.621333-161.621334a75.776 75.776 0 0 0 1.308444-105.443555l-234.951111-251.022222zM282.368 832.967111l-105.386667-105.415111a36.835556 36.835556 0 0 0-11.463111-7.594667L689.009778 222.634667l110.250666 110.250666c1.649778 1.649778 3.697778 2.446222 5.575112 3.697778L282.368 832.967111zM818.944 99.157333a41.159111 41.159111 0 0 1 57.457778 0.739556l56.632889 56.632889c16.099556 16.099556 16.099556 42.154667-0.739556 58.965333l-75.377778 71.594667c-1.507556-2.446222-2.616889-5.034667-4.750222-7.168l-108.942222-108.885334 75.719111-71.879111zM246.215111 381.184a37.262222 37.262222 0 0 0 25.884445-10.865778l56.120888-56.149333a37.432889 37.432889 0 1 0-52.906666-52.906667l-56.149334 56.149334c-6.229333 6.371556-9.955556 14.791111-10.439111 23.665777L113.208889 239.075556c-0.597333-0.597333-0.597333-1.194667-0.426667-1.365334l161.621334-161.649778c0.142222-0.142222 0.796444-0.142222 1.450666 0.483556l215.665778 230.4-166.599111 158.293333L246.215111 381.155556z m-167.822222 547.811556a1.877333 1.877333 0 0 1-2.360889-2.275556l33.905778-144.696889c1.137778-4.864 3.441778-9.329778 6.229333-13.454222 1.820444 4.437333 4.522667 8.476444 7.879111 11.889778l103.253334 103.253333a41.016889 41.016889 0 0 1-9.358223 4.152889L78.392889 928.995556z m699.818667 19.484444c-0.170667 0.170667-0.796444 0.170667-1.479112-0.483556l-146.887111-156.928c6.172444-1.507556 11.861333-4.636444 16.469334-9.016888l56.120889-56.149334a37.432889 37.432889 0 1 0-52.906667-52.906666l-56.149333 56.149333a37.063111 37.063111 0 0 0-8.533334 13.909333l-46.648889-49.891555 166.570667-158.264889 234.581333 250.624c0.568889 0.597333 0.568889 1.223111 0.426667 1.365333l-161.564444 161.592889z" fill="#ffffff" p-id="4045"></path></svg>