<?xml version="1.0" standalone="no"?><!DOCTYPE svg PUBLIC "-//W3C//DTD SVG 1.1//EN" "http://www.w3.org/Graphics/SVG/1.1/DTD/svg11.dtd"><svg t="1777689739507" class="icon" viewBox="0 0 1024 1024" version="1.1" xmlns="http://www.w3.org/2000/svg" p-id="5068" xmlns:xlink="http://www.w3.org/1999/xlink" width="200" height="200"><path d="M960.167 449.689c0-17.254-13.98-31.234-31.234-31.234s-31.234 13.98-31.234 31.234c0 177.968-172.802 322.75-385.217 322.75-0.549 0-1.06 0.133-1.6 0.161-6.866-0.231-13.843 1.648-19.762 6.082L374.513 866.14v-83.29c0-1.542-0.238-3.019-0.454-4.5 2.407-14.399-5.574-28.961-19.74-34.329C216.39 691.812 127.265 576.282 127.265 449.69c0-17.254-13.98-31.234-31.233-31.234s-31.233 13.98-31.233 31.234c0 146.376 96.36 279.547 247.248 344.54v134.38a31.234 31.234 0 0 0 17.264 27.939 31.255 31.255 0 0 0 32.71-2.95L520.51 834.73c243.147-3.711 439.657-174.942 439.657-385.041zM103.474 374.938c16.186 5.877 34.12-2.531 39.987-18.758C192.264 221.21 343.9 126.94 512.228 126.94c169.051 0 320.88 94.789 369.224 230.5 4.555 12.78 16.583 20.763 29.425 20.763 3.477 0 7.015-0.59 10.482-1.82 16.247-5.784 24.727-23.659 18.942-39.907C882.348 173.78 710.318 64.471 512.228 64.471c-197.225 0-369.021 108.699-427.514 270.48-5.865 16.217 2.532 34.12 18.76 39.987z" fill="#ffffff" p-id="5069"></path><path d="M390.597 300.545c-17.254 0-31.233 13.98-31.233 31.233v30.471c0 17.254 13.98 31.234 31.233 31.234s31.234-13.98 31.234-31.234v-30.47c0-17.255-13.98-31.234-31.234-31.234zM634.367 300.545c-17.254 0-31.234 13.98-31.234 31.233v30.471c0 17.254 13.98 31.234 31.234 31.234s31.233-13.98 31.233-31.234v-30.47c0.001-17.255-13.98-31.234-31.233-31.234zM589.507 441.992c-14.306-9.406-33.593-5.39-43.16 8.764-0.132 0.194-13.614 19.755-34.172 19.755-19.99 0-32.423-18.098-33.268-19.37-9.16-14.416-28.254-18.808-42.834-9.77-14.65 9.11-19.156 28.367-10.055 43.018 11.214 18.047 41.97 48.59 86.157 48.59 43.963 0 75.106-30.319 86.575-48.224 9.22-14.396 5.032-33.358-9.243-42.763z" fill="#ffffff" p-id="5070"></path></svg>