<?xml version="1.0" standalone="no"?><!DOCTYPE svg PUBLIC "-//W3C//DTD SVG 1.1//EN" "http://www.w3.org/Graphics/SVG/1.1/DTD/svg11.dtd"><svg t="1777894132114" class="icon" viewBox="0 0 1024 1024" version="1.1" xmlns="http://www.w3.org/2000/svg" p-id="4109" xmlns:xlink="http://www.w3.org/1999/xlink" width="200" height="200"><path d="M590.6 601.4L398.9 409.7c-1.1-1.1-1.1-2.9 0-4l147.3-147.3c54-54 141.6-54 195.6 0s54 141.6 0 195.6L594.5 601.4c-1.1 1.1-2.8 1.1-3.9 0z" fill="#FC6363" p-id="4110"></path><path d="M741.8 258.5c-2-2-4.1-3.9-6.2-5.8 44.7 54.3 41.6 134.7-9.1 185.5L579.2 585.5c-1.1 1.1-2.9 1.1-4 0l-177-177c0.1 0.5 0.4 0.9 0.7 1.3l191.6 191.6c1.1 1.1 2.9 1.1 4 0l147.3-147.3c54-54 54-141.6 0-195.6z" fill="#FF4D4D" p-id="4111"></path><path d="M581.3 610.6L389.7 419c-1.1-1.1-2.9-1.1-4 0L238.4 566.3c-54 54-54 141.6 0 195.6s141.6 54 195.6 0l147.3-147.3c1.1-1.1 1.1-2.9 0-4z" fill="#F9E280" p-id="4112"></path><path d="M581.3 610.6L389.7 419c-0.4-0.4-0.8-0.6-1.3-0.7l177 177c1.1 1.1 1.1 2.9 0 4L418.1 746.5c-50.8 50.8-131.2 53.8-185.5 9.1 1.9 2.1 3.8 4.2 5.8 6.2 54 54 141.6 54 195.6 0l147.3-147.3c1.1-1 1.1-2.8 0-3.9z" fill="#FCDA4C" p-id="4113"></path></svg>