<?xml version="1.0" standalone="no"?><!DOCTYPE svg PUBLIC "-//W3C//DTD SVG 1.1//EN" "http://www.w3.org/Graphics/SVG/1.1/DTD/svg11.dtd"><svg t="1778286441065" class="icon" viewBox="0 0 1024 1024" version="1.1" xmlns="http://www.w3.org/2000/svg" p-id="32777" xmlns:xlink="http://www.w3.org/1999/xlink" width="200" height="200"><path d="M388.3 726.8h246.5v120.5H388.3z" fill="#32378E" p-id="32778"></path><path d="M388.3 640.8h246.5v120.5H388.3zM695.5 883.7H327.7c-4.1 0-7.5-3.4-7.5-7.5v-11.3c0-1.5 1.2-2.7 2.7-2.7h377.5c1.5 0 2.7 1.2 2.7 2.7v11.3c-0.1 4.2-3.4 7.5-7.6 7.5z" fill="#161235" p-id="32779"></path><path d="M699 869.2H324.1c-3.8 0-5.5-4.8-2.5-7.1l66.7-53.2h246.5l66.7 53.2c3 2.3 1.3 7.1-2.5 7.1z" fill="#8875FF" p-id="32780"></path><path d="M941.6 738.4H82.4c-9.9 0-18-8.1-18-18V158.3c0-9.9 8.1-18 18-18h859.1c9.9 0 18 8.1 18 18v562.2c0.1 9.9-8 17.9-17.9 17.9z" fill="#9180FF" p-id="32781"></path><path d="M512 706.8m-21.3 0a21.3 21.3 0 1 0 42.6 0 21.3 21.3 0 1 0-42.6 0Z" fill="#FFE164" p-id="32782"></path><path d="M106.3 180.4h812.4v490.3H106.3z" fill="#161235" p-id="32783"></path><path d="M623.3 668.5l-246.7-2.6 485.7-485.4h56l-1 194z" fill="#161235" p-id="32784"></path><path d="M199.3 671.5h-45l489.5-491h45z" fill="#161235" p-id="32785"></path></svg>