<?xml version="1.0" standalone="no"?><!DOCTYPE svg PUBLIC "-//W3C//DTD SVG 1.1//EN" "http://www.w3.org/Graphics/SVG/1.1/DTD/svg11.dtd"><svg t="1777901504490" class="icon" viewBox="0 0 1024 1024" version="1.1" xmlns="http://www.w3.org/2000/svg" p-id="41016" xmlns:xlink="http://www.w3.org/1999/xlink" width="200" height="200"><path d="M938.664229 0H85.335771C38.268343 0 0 38.268343 0 85.335771v853.328458C0 985.731657 38.268343 1024 85.335771 1024h853.328458c47.067429 0 85.335771-38.268343 85.335771-85.335771V85.335771C1024 38.136686 985.731657 0 938.664229 0z m0 940.002743H85.335771V86.666971h853.328458v853.335772zM175.067429 240.128a64 64 0 1 0 128 0 64 64 0 0 0-128 0z m209.993142 0.658286a64 64 0 1 0 128 0 64 64 0 0 0-128 0z m210.007772-1.323886a64 64 0 1 0 128 0 64 64 0 0 0-128 0zM175.067429 449.9968a64 64 0 1 0 128 0 64 64 0 0 0-128 0z m0 209.8688a64 64 0 1 0 128 0 64 64 0 0 0-128 0zM384 449.9968a64 64 0 1 0 128 0 64 64 0 0 0-128 0z m347.062857 337.8688a64 64 0 1 0 128 0 64 64 0 0 0-128 0z" fill="#1296db" p-id="41017"></path></svg>