<?xml version="1.0" standalone="no"?><!DOCTYPE svg PUBLIC "-//W3C//DTD SVG 1.1//EN" "http://www.w3.org/Graphics/SVG/1.1/DTD/svg11.dtd"><svg t="1778234966165" class="icon" viewBox="0 0 1024 1024" version="1.1" xmlns="http://www.w3.org/2000/svg" p-id="23122" xmlns:xlink="http://www.w3.org/1999/xlink" width="200" height="200"><path d="M507.7 226.5C235.2 226.5 65 516.3 65 516.3S233.6 802 507.7 802c256.4 0 450.9-285.7 450.9-285.7s-193-289.8-450.9-289.8z m1.1 511.5c-199.3 0-329.1-225.6-329.1-225.6s131-196.7 329.1-196.7c187.5 0 335 196.7 335 196.7S695.2 738 508.8 738z" fill="#333333" p-id="23123"></path><path d="M510.8 299.3c-98.9 0-179 79.4-179 177.3S411.9 654 510.8 654s179-79.4 179-177.4c0-97.9-80.2-177.3-179-177.3zM365.9 443c0-16.8 13.6-30.4 30.4-30.4 16.8 0 30.4 13.6 30.4 30.4 0 16.8-13.6 30.4-30.4 30.4-16.8 0.1-30.4-13.5-30.4-30.4z m122.2 170.6c-48.5-12.3-86.6-50.4-98.5-98.6 8.9-10.6 22-13.4 35.8-17.3 13.1 40.8 44.2 68 85.1 81.8-4 13.5-11.9 25.3-22.4 34.1z" fill="#333333" p-id="23124"></path></svg>