<?xml version="1.0" standalone="no"?><!DOCTYPE svg PUBLIC "-//W3C//DTD SVG 1.1//EN" "http://www.w3.org/Graphics/SVG/1.1/DTD/svg11.dtd"><svg t="1778234500531" class="icon" viewBox="0 0 1024 1024" version="1.1" xmlns="http://www.w3.org/2000/svg" p-id="21190" xmlns:xlink="http://www.w3.org/1999/xlink" width="200" height="200"><path d="M361.706667 171.093333c104.213333-35.413333 222.613333-26.24 320.64 23.466667 129.066667 62.933333 220.266667 195.413333 234.133333 338.133333 9.6 88.106667-8.106667 180.906667-54.293333 257.173334-6.4-0.426667-19.093333-1.066667-25.493334-1.493334 51.733333-85.44 70.08-188.8 51.2-286.933333-22.293333-122.773333-106.026667-232.213333-218.24-286.293333-87.04-45.013333-191.146667-51.093333-285.12-26.773334-26.986667 7.146667-53.333333 16.96-77.44 31.253334-61.013333 27.413333-107.84 79.573333-147.52 132.053333-87.573333 127.146667-90.666667 306.026667-10.24 437.44-8.426667-0.853333-16.96-1.6-25.386666-2.24C74.24 710.186667 60.8 613.44 71.253333 523.733333c17.92-160.32 136.213333-304.853333 290.453334-352.64z" fill="#EFAA52" p-id="21191"></path><path d="M384.533333 188.373333c93.973333-24.32 198.08-18.24 285.12 26.773334C781.866667 269.226667 865.6 378.666667 887.893333 501.44c18.88 98.133333 0.533333 201.493333-51.2 286.933333-5.76-0.426667-17.173333-1.173333-22.933333-1.6-4.906667-16.213333-9.28-32.533333-15.466667-48.32-4.586667-16.426667 2.986667-39.146667-13.546666-50.026666-15.573333-16.746667-39.573333-13.76-60.053334-16.106667-9.493333-6.186667-18.986667-12.16-29.226666-16.853333l-25.28-16.746667c-6.186667-27.2-35.2-50.88-63.36-40.96-20.48 3.626667-35.306667 21.866667-39.466667 41.6-3.733333 4.16-11.306667 12.586667-15.04 16.853333-55.893333-37.44-82.346667-109.333333-144.533333-137.6 11.413333-15.04 35.733333-39.466667 19.306666-57.706666-6.08 0-18.133333 0.106667-24.213333 0.213333-32.32-86.933333-38.826667-182.293333-18.346667-272.746667m161.173334 279.68c6.826667 60.053333 71.36 91.946667 126.826666 83.2 16.32-0.426667 61.76 2.24 43.946667-26.24-38.826667-9.173333-95.68 14.08-122.986667-29.76-4.906667-23.253333-23.146667-50.986667-47.786666-27.2z" fill="#FDED78" p-id="21192"></path><path d="M307.093333 219.626667c24.106667-14.293333 50.453333-24.106667 77.44-31.253334-20.48 90.453333-13.973333 185.813333 18.346667 272.746667-10.986667 18.56-18.133333 42.56-39.253333 52.373333-31.253333 14.613333-66.24 4.053333-99.2 6.293334 2.56-14.933333 18.026667-18.453333 28.906666-25.493334-2.24-37.12-12.586667-73.386667-10.56-110.72-3.413333-56.106667 21.866667-108.48 24.32-163.946666z" fill="#FEE076" p-id="21193"></path><path d="M159.573333 351.68c39.68-52.48 86.506667-104.64 147.52-132.053333-2.453333 55.466667-27.733333 107.84-24.32 163.946666-2.026667 37.333333 8.32 73.6 10.56 110.72-10.88 7.04-26.346667 10.56-28.906666 25.493334-1.066667 3.626667-2.986667 10.773333-4.053334 14.4 1.066667 2.56 3.093333 7.893333 4.16 10.453333l7.786667 14.08c15.36 9.6 38.826667 8.32 48.96 24.64 1.386667 13.546667 8.32 26.453333 6.186667 40.213333-1.173333 4.16-3.626667 12.266667-4.8 16.426667-17.493333-0.853333-36.48 21.333333-17.6 34.026667 6.4 1.173333 19.306667 3.306667 25.813333 4.48 7.786667 5.76 15.573333 11.413333 23.36 17.066666-11.306667 22.4-36.373333 3.84-54.4 4.693334-21.44-16.746667-46.613333-38.186667-76.16-27.626667-33.386667 0.533333-50.773333 46.72-22.933333 67.626667a250.026667 250.026667 0 0 1-6.293334 48.64c-15.04 1.493333-30.08 1.6-45.12 0.213333-80.426667-131.413333-77.333333-310.293333 10.24-437.44z" fill="#FFCC73" p-id="21194"></path><path d="M402.88 461.12c6.08-0.106667 18.133333-0.213333 24.213333-0.213333 16.426667 18.24-7.893333 42.666667-19.306666 57.706666-34.773333 41.066667-95.786667 34.346667-143.253334 26.026667-1.066667-2.56-3.093333-7.893333-4.16-10.453333 1.066667-3.626667 2.986667-10.773333 4.053334-14.4 32.96-2.24 67.946667 8.32 99.2-6.293334 21.12-9.813333 28.266667-33.813333 39.253333-52.373333z" fill="#A1390A" p-id="21195"></path><path d="M545.706667 468.053333c24.64-23.786667 42.88 3.946667 47.786666 27.2 27.306667 43.84 84.16 20.586667 122.986667 29.76 17.813333 28.48-27.626667 25.813333-43.946667 26.24-55.466667 8.746667-120-23.146667-126.826666-83.2z" fill="#A03508" p-id="21196"></path><path d="M264.533333 544.64c47.466667 8.32 108.48 15.04 143.253334-26.026667 62.186667 28.266667 88.64 100.16 144.533333 137.6 3.733333-4.266667 11.306667-12.693333 15.04-16.853333-4.8 29.973333 20.8 62.186667 51.84 60.8 15.893333 1.173333 27.626667-11.093333 40.64-17.813333 21.12 6.933333 34.453333-6.72 35.626667-26.88 10.24 4.693333 19.733333 10.666667 29.226666 16.853333a457.226667 457.226667 0 0 0-43.413333 40.426667c-37.973333 8-78.4 31.68-79.253333 75.413333-65.28 2.453333-130.56-0.64-195.946667-0.213333-5.013333-20.906667-4.906667-46.72-25.6-59.413334-9.706667-10.453333-32.533333-13.333333-26.24-32.96 35.2 19.306667 78.826667-18.24 70.613333-55.786666-4.266667-47.146667-77.013333-58.133333-97.386666-16.213334 2.133333-13.76-4.8-26.666667-6.186667-40.213333-10.133333-16.32-33.6-15.04-48.96-24.64l-7.786667-14.08z" fill="#FEDD76" p-id="21197"></path><path d="M606.826667 597.76c28.16-9.92 57.173333 13.76 63.36 40.96-12.8 12.373333-18.133333 26.453333-10.346667 43.626667-13.013333 6.72-24.746667 18.986667-40.64 17.813333-31.04 1.386667-56.64-30.826667-51.84-60.8 4.16-19.733333 18.986667-37.973333 39.466667-41.6m-6.506667 13.226667c-29.866667 21.226667 6.186667 66.346667 35.093333 44.906666 34.346667-20.053333-10.24-76.693333-35.093333-44.906666m11.52 60.373333l-6.613333 9.173333 4.586666 7.68c24.426667 21.333333 22.186667-37.866667 2.026667-16.853333zM327.466667 623.573333c20.373333-41.92 93.12-30.933333 97.386666 16.213334 8.213333 37.546667-35.413333 75.093333-70.613333 55.786666-7.786667-5.653333-15.573333-11.306667-23.36-17.066666 7.466667-13.76 7.36-30.826667-8.213333-38.506667 1.173333-4.16 3.626667-12.266667 4.8-16.426667m34.666666-17.28c-15.146667 8.746667-23.36 28.906667-11.2 43.84 14.08 16.96 47.68 13.12 52.16-10.453333 7.146667-22.08-21.013333-46.186667-40.96-33.386667m0.96 65.6c-3.84 17.6 2.24 23.68 18.133334 17.92 7.146667-18.773333 1.066667-24.746667-18.133334-17.92z" fill="#151619" p-id="21198"></path><path d="M362.133333 606.293333c19.946667-12.8 48.106667 11.306667 40.96 33.386667-4.48 23.573333-38.08 27.413333-52.16 10.453333-12.16-14.933333-3.946667-35.093333 11.2-43.84zM600.32 610.986667c24.853333-31.786667 69.44 24.853333 35.093333 44.906666-28.906667 21.44-64.96-23.68-35.093333-44.906666z" fill="#FFFFFF" p-id="21199"></path><path d="M611.84 671.36c20.16-21.013333 22.4 38.186667-2.026667 16.853333l-4.586666-7.68 6.613333-9.173333z" fill="#FFFFFF" p-id="21200"></path><path d="M305.066667 674.026667c-18.88-12.693333 0.106667-34.88 17.6-34.026667a64.789333 64.789333 0 0 1-17.6 34.026667z" fill="#B2D8E4" p-id="21201"></path><path d="M322.666667 640c15.573333 7.68 15.68 24.746667 8.213333 38.506667-6.506667-1.173333-19.413333-3.306667-25.813333-4.48 9.386667-9.706667 15.253333-21.12 17.6-34.026667z" fill="#78BCD0" p-id="21202"></path><path d="M670.186667 638.72l25.28 16.746667c-1.173333 20.16-14.506667 33.813333-35.626667 26.88-7.786667-17.173333-2.453333-31.253333 10.346667-43.626667z" fill="#96CED8" p-id="21203"></path><path d="M200.746667 740.266667c-27.84-20.906667-10.453333-67.093333 22.933333-67.626667 29.546667-10.56 54.72 10.88 76.16 27.626667-38.826667-6.613333-77.013333 6.293333-99.093333 40z" fill="#F29750" p-id="21204"></path><path d="M363.093333 671.893333c19.2-6.826667 25.28-0.853333 18.133334 17.92-15.893333 5.76-21.973333-0.32-18.133334-17.92z" fill="#B4B5B8" p-id="21205"></path><path d="M724.693333 672.32c20.48 2.346667 44.48-0.64 60.053334 16.106667 16.533333 10.88 8.96 33.6 13.546666 50.026666-29.226667-35.84-75.626667-35.626667-117.013333-25.706666 13.653333-14.4 28.053333-27.946667 43.413333-40.426667z" fill="#F4B15D" p-id="21206"></path><path d="M200.746667 740.266667c22.08-33.706667 60.266667-46.613333 99.093333-40 18.026667-0.853333 43.093333 17.706667 54.4-4.693334-6.293333 19.626667 16.533333 22.506667 26.24 32.96 20.693333 12.693333 20.586667 38.506667 25.6 59.413334 65.386667-0.426667 130.666667 2.666667 195.946667 0.213333l5.12 9.386667c-68.586667-1.28-137.066667 1.28-205.546667-1.28l-8.64 6.293333c-19.2 28.48-51.733333 45.013333-84.693333 51.84-16.746667-1.813333-33.706667 0-50.56-0.853333-19.093333-2.666667-38.613333-14.613333-46.933334-32.213334-2.56-5.76-7.466667-17.386667-10.026666-23.253333-49.28 0.746667-98.56-6.4-147.84-2.133333 15.253333-15.786667 48.96-1.066667 71.04-9.066667 8.426667 0.64 16.96 1.386667 25.386666 2.24 15.04 1.386667 30.08 1.28 45.12-0.213333 3.733333-16 5.76-32.32 6.293334-48.64m53.653333 85.013333c5.76-16.213333-6.826667-52.906667 22.08-45.973333 1.386667 17.066667-12.053333 38.506667-0.106667 52.8 12.906667-0.96 25.706667-2.453333 38.506667-4.373334 8.853333-14.4-5.653333-30.933333-2.56-46.72 23.146667-5.973333 15.466667 25.813333 27.946667 36.693334 17.386667-11.946667 40.64-25.493333 39.786666-49.813334-21.44-45.333333-81.173333-42.56-123.52-39.893333-47.786667 7.253333-47.786667 85.973333-2.133333 97.28z" fill="#FFA211" p-id="21207"></path><path d="M681.28 712.746667c41.386667-9.92 87.786667-10.133333 117.013333 25.706666 6.186667 15.786667 10.56 32.106667 15.466667 48.32 5.76 0.426667 17.173333 1.173333 22.933333 1.6 6.4 0.426667 19.093333 1.066667 25.493334 1.493334 32.213333 2.24 72.746667-9.066667 99.946666 6.293333-51.306667-6.613333-102.613333 2.88-153.92 0.32-1.706667 5.76-5.013333 17.386667-6.72 23.146667-4.8 15.146667-16.853333 30.08-31.466666 36.266666-32.106667 14.08-68.16 8.746667-100.906667-0.426666-18.24-9.6-38.4-19.2-49.92-37.013334-2.986667-5.226667-9.066667-15.68-12.053333-20.906666l-5.12-9.386667c0.853333-43.733333 41.28-67.413333 79.253333-75.413333m-50.026667 57.066666c-13.546667 20.266667 9.92 37.546667 22.4 50.56 21.973333 2.56 12.373333-36.906667 36.586667-29.12-2.24 13.973333-5.76 27.733333-7.893333 41.813334 15.146667 3.946667 33.92 12.373333 48.64 4.16 3.626667-15.68-7.68-30.826667-5.653334-46.826667 26.133333-4.8 12.906667 37.44 32.533334 43.733333 27.413333-13.546667 37.12-51.413333 21.226666-77.013333-15.893333-24.106667-49.386667-26.24-75.2-21.546667-25.706667 5.226667-59.306667 7.786667-72.64 34.24z" fill="#FFA30F" p-id="21208"></path><path d="M254.4 825.28c-45.653333-11.306667-45.653333-90.026667 2.133333-97.28 42.346667-2.666667 102.08-5.44 123.52 39.893333 0.853333 24.32-22.4 37.866667-39.786666 49.813334-12.48-10.88-4.8-42.666667-27.946667-36.693334-3.093333 15.786667 11.413333 32.32 2.56 46.72-12.8 1.92-25.6 3.413333-38.506667 4.373334-11.946667-14.293333 1.493333-35.733333 0.106667-52.8-28.906667-6.933333-16.32 29.76-22.08 45.973333zM631.253333 769.813333c13.333333-26.453333 46.933333-29.013333 72.64-34.24 25.813333-4.693333 59.306667-2.56 75.2 21.546667 15.893333 25.6 6.186667 63.466667-21.226666 77.013333-19.626667-6.293333-6.4-48.533333-32.533334-43.733333-2.026667 16 9.28 31.146667 5.653334 46.826667-14.72 8.213333-33.493333-0.213333-48.64-4.16 2.133333-14.08 5.653333-27.84 7.893333-41.813334-24.213333-7.786667-14.613333 31.68-36.586667 29.12-12.48-13.013333-35.946667-30.293333-22.4-50.56z" fill="#FFE06E" p-id="21209"></path><path d="M52.906667 795.946667c49.28-4.266667 98.56 2.88 147.84 2.133333 2.56 5.866667 7.466667 17.493333 10.026666 23.253333-47.253333-26.133333-106.026667-0.96-157.546666-12.16l-0.32-13.226666z" fill="#1F0D02" opacity=".36" p-id="21210"></path><path d="M392.96 802.56l8.64-6.293333c68.48 2.56 136.96 0 205.546667 1.28 2.986667 5.226667 9.066667 15.68 12.053333 20.906666-5.546667-2.133333-16.426667-6.293333-21.973333-8.32-66.24-1.493333-132.693333 2.24-198.72-1.6l-5.546667-5.973333z" fill="#1F0D01" opacity=".37" p-id="21211"></path><path d="M801.493333 819.626667c1.706667-5.76 5.013333-17.386667 6.72-23.146667 51.306667 2.56 102.613333-6.933333 153.92-0.32l-3.413333 12.8c-45.76 3.306667-91.733333 0.533333-137.493333 0.106667-4.906667 2.666667-14.826667 7.893333-19.733334 10.56z" fill="#241002" opacity=".4" p-id="21212"></path><path d="M257.706667 853.546667c16.853333 0.853333 33.813333-0.96 50.56 0.853333-2.986667 17.813333-50.666667 18.666667-50.56-0.853333z" fill="#301E03" opacity=".41" p-id="21213"></path><path d="M669.12 855.466667c32.746667 9.173333 68.8 14.506667 100.906667 0.426666-22.293333 28.373333-74.133333 19.733333-100.906667-0.426666z" fill="#2B1B03" opacity=".33" p-id="21214"></path></svg>