<?xml version="1.0" standalone="no"?><!DOCTYPE svg PUBLIC "-//W3C//DTD SVG 1.1//EN" "http://www.w3.org/Graphics/SVG/1.1/DTD/svg11.dtd"><svg t="1778231686584" class="icon" viewBox="0 0 1024 1024" version="1.1" xmlns="http://www.w3.org/2000/svg" p-id="4440" xmlns:xlink="http://www.w3.org/1999/xlink" width="200" height="200"><path d="M512 512m-469.333333 0a469.333333 469.333333 0 1 0 938.666666 0 469.333333 469.333333 0 1 0-938.666666 0Z" fill="#FFD45A" p-id="4441"></path><path d="M185.770667 434.730667a120.192 120.192 0 1 0 240.384 0 120.192 120.192 0 1 0-240.384 0Z" fill="#F7E5C1" p-id="4442"></path><path d="M185.770667 423.274667a120.192 114.474667 0 1 0 240.384 0 120.192 114.474667 0 1 0-240.384 0Z" fill="#FCF7ED" p-id="4443"></path><path d="M220.117333 436.16a87.274667 87.274667 0 1 0 174.549334 0 87.274667 87.274667 0 1 0-174.549334 0Z" fill="#474867" p-id="4444"></path><path d="M271.616 387.498667a35.776 35.776 0 1 0 71.552 0 35.776 35.776 0 1 0-71.552 0Z" fill="#F7E5C1" p-id="4445"></path><path d="M273.840403 355.969094a37.205333 21.461333 30.302 1 0 64.244528 37.544479 37.205333 21.461333 30.302 1 0-64.244528-37.544479Z" fill="#FCF7ED" p-id="4446"></path><path d="M720.896 434.730667m-120.192 0a120.192 120.192 0 1 0 240.384 0 120.192 120.192 0 1 0-240.384 0Z" fill="#F7E5C1" p-id="4447"></path><path d="M600.704 423.274667a120.192 114.474667 0 1 0 240.384 0 120.192 114.474667 0 1 0-240.384 0Z" fill="#FCF7ED" p-id="4448"></path><path d="M719.488 436.16m-87.274667 0a87.274667 87.274667 0 1 0 174.549334 0 87.274667 87.274667 0 1 0-174.549334 0Z" fill="#474867" p-id="4449"></path><path d="M683.690667 387.498667a35.776 35.776 0 1 0 71.552 0 35.776 35.776 0 1 0-71.552 0Z" fill="#F7E5C1" p-id="4450"></path><path d="M685.957736 355.94776a37.205333 21.461333 30.302 1 0 64.244528 37.54448 37.205333 21.461333 30.302 1 0-64.244528-37.54448Z" fill="#FCF7ED" p-id="4451"></path><path d="M394.901333 669.397333a8.32 8.32 0 0 1 8.32-8.32h220.373334a8.32 8.32 0 1 1 0 16.64H403.2a8.32 8.32 0 0 1-8.32-8.32z" fill="#DB4834" p-id="4452"></path></svg>