<?xml version="1.0" standalone="no"?><!DOCTYPE svg PUBLIC "-//W3C//DTD SVG 1.1//EN" "http://www.w3.org/Graphics/SVG/1.1/DTD/svg11.dtd"><svg t="1778233003570" class="icon" viewBox="0 0 1024 1024" version="1.1" xmlns="http://www.w3.org/2000/svg" p-id="11599" xmlns:xlink="http://www.w3.org/1999/xlink" width="200" height="200"><path d="M512 899.2c213.8448 0 387.2-173.3552 387.2-387.2 0-213.8448-173.3552-387.2-387.2-387.2C298.1552 124.8 124.8 298.1552 124.8 512c0 213.8448 173.3552 387.2 387.2 387.2z" fill="#FFBD39" p-id="11600"></path><path d="M512 881.6c204.1248 0 369.6-165.4752 369.6-369.6S716.1248 142.4 512 142.4 142.4 307.8752 142.4 512s165.4752 369.6 369.6 369.6z" fill="#FFD644" p-id="11601"></path><path d="M512 881.6c204.1248 0 369.6-165.4752 369.6-369.6S716.1248 142.4 512 142.4 142.4 307.8752 142.4 512s165.4752 369.6 369.6 369.6z" fill="#FFD644" p-id="11602"></path><path d="M376.48 621.12c0 28.64-25.12 51.84-56.16 51.84-31.04 0-56.16-23.2-56.16-51.84s25.12-51.84 56.16-51.84c31.04 0 56.16 23.2 56.16 51.84zM759.84 621.12c0 28.64-25.12 51.84-56.16 51.84-31.04 0-56.16-23.2-56.16-51.84s25.12-51.84 56.16-51.84c31.04 0 56.16 23.2 56.16 51.84z" fill="#FF5F82" opacity=".6" p-id="11603"></path><path d="M395.2 378.72c-72 6.72-52.48 155.2 5.44 152.48 57.76-2.88 66.56-159.2-5.44-152.48z" fill="#541300" p-id="11604"></path><path d="M420.16 445.6c-15.36-1.92-20.16 34.56-2.88 38.4 17.44 4 24.64-35.52 2.88-38.4z" fill="#FFFFFF" p-id="11605"></path><path d="M618.72 378.72c72 6.72 52.48 155.2-5.44 152.48-57.76-2.88-66.56-159.2 5.44-152.48z" fill="#541300" p-id="11606"></path><path d="M593.76 445.6c15.36-1.92 20.16 34.56 2.88 38.4-17.44 4-24.64-35.52-2.88-38.4z" fill="#FFFFFF" p-id="11607"></path><path d="M350.72 594.72c7.36-5.6 314.08-5.92 321.92 0 15.52 11.52 6.56 142.88-157.6 142.88-164.16-0.16-179.52-131.36-164.32-142.88z" fill="#872A2A" p-id="11608"></path></svg>