<?xml version="1.0" standalone="no"?><!DOCTYPE svg PUBLIC "-//W3C//DTD SVG 1.1//EN" "http://www.w3.org/Graphics/SVG/1.1/DTD/svg11.dtd"><svg t="1778233975282" class="icon" viewBox="0 0 1024 1024" version="1.1" xmlns="http://www.w3.org/2000/svg" p-id="18920" xmlns:xlink="http://www.w3.org/1999/xlink" width="200" height="200"><path d="M1024 512C1024 794.168889 794.168889 1024 512 1024S0 794.168889 0 512 229.831111 0 512 0 1024 229.831111 1024 512" fill="#FEE987" p-id="18921"></path><path d="M382.293333 377.742222h-202.524444c-4.551111 0-9.102222-4.551111-9.102222-9.102222s4.551111-9.102222 9.102222-9.102222h202.524444c4.551111 0 9.102222 4.551111 9.102223 9.102222 0 6.826667-4.551111 9.102222-9.102223 9.102222M846.506667 377.742222h-202.524445c-4.551111 0-9.102222-4.551111-9.102222-9.102222s4.551111-9.102222 9.102222-9.102222h202.524445c4.551111 0 9.102222 4.551111 9.102222 9.102222 0 6.826667-4.551111 9.102222-9.102222 9.102222" fill="#FFFFFF" p-id="18922"></path><path d="M395.946667 163.84s0 2.275556-4.551111 9.102222c-2.275556 4.551111-6.826667 11.377778-13.653334 20.48-6.826667 6.826667-13.653333 15.928889-25.031111 22.755556-2.275556 2.275556-4.551111 4.551111-6.826667 4.551111-2.275556 2.275556-4.551111 2.275556-9.102222 4.551111-2.275556 2.275556-6.826667 2.275556-9.102222 4.551111-2.275556 2.275556-6.826667 2.275556-9.102222 4.551111-6.826667 2.275556-11.377778 4.551111-18.204445 4.551111-6.826667 2.275556-13.653333 2.275556-18.204444 2.275556h-18.204445c-4.551111 0-11.377778 0-15.928888-2.275556-9.102222-2.275556-18.204444-2.275556-22.755556-4.551111-4.551111-2.275556-9.102222-2.275556-9.102222-2.275555-2.275556 0-2.275556-2.275556-2.275556-4.551111s2.275556-2.275556 4.551111-2.275556c0 0 11.377778 2.275556 29.582223 2.275556h13.653333c4.551111 0 11.377778 0 15.928889-2.275556 11.377778-2.275556 22.755556-4.551111 34.133333-9.102222 2.275556 0 4.551111-2.275556 6.826667-2.275556 2.275556-2.275556 4.551111-2.275556 6.826666-4.551111 2.275556-2.275556 4.551111-2.275556 6.826667-4.551111 2.275556-2.275556 4.551111-2.275556 6.826667-4.551111 9.102222-6.826667 15.928889-13.653333 22.755555-18.204445l15.928889-15.928888c4.551111-4.551111 4.551111-6.826667 4.551111-6.826667 2.275556-2.275556 4.551111-2.275556 4.551111 0 9.102222 0 9.102222 2.275556 9.102223 4.551111zM623.502222 159.288889s2.275556 2.275556 4.551111 6.826667l15.928889 15.928888c6.826667 6.826667 13.653333 11.377778 22.755556 18.204445 2.275556 2.275556 4.551111 2.275556 6.826666 4.551111 2.275556 2.275556 4.551111 2.275556 6.826667 4.551111 2.275556 2.275556 4.551111 2.275556 6.826667 4.551111 2.275556 2.275556 4.551111 2.275556 6.826666 2.275556 11.377778 4.551111 22.755556 6.826667 34.133334 9.102222 4.551111 0 11.377778 2.275556 15.928889 2.275556h13.653333c18.204444 0 29.582222-2.275556 29.582222-2.275556 2.275556 0 4.551111 0 4.551111 2.275556s0 4.551111-2.275555 4.551111c0 0-2.275556 0-9.102222 2.275555-4.551111 2.275556-13.653333 4.551111-22.755556 4.551111-4.551111 0-9.102222 0-15.928889 2.275556h-18.204444c-6.826667 0-11.377778-2.275556-18.204445-2.275556-6.826667-2.275556-13.653333-2.275556-18.204444-4.551111-2.275556 0-6.826667-2.275556-9.102222-4.551111-2.275556-2.275556-6.826667-2.275556-9.102223-4.551111-2.275556-2.275556-4.551111-2.275556-9.102222-4.551111-2.275556-2.275556-4.551111-4.551111-6.826667-4.551111-9.102222-6.826667-18.204444-15.928889-25.031111-22.755556-6.826667-6.826667-11.377778-13.653333-13.653333-20.48l-4.551111-9.102222c0-2.275556 0-4.551111 2.275555-4.551111 9.102222-2.275556 11.377778 0 11.377778 0M307.2 671.288889s4.551111 9.102222 13.653333 22.755555c4.551111 6.826667 9.102222 15.928889 15.928889 22.755556 2.275556 4.551111 6.826667 9.102222 11.377778 13.653333 4.551111 4.551111 9.102222 6.826667 13.653333 9.102223h2.275556c-2.275556 0 2.275556 0 0 0 0 0 2.275556-4.551111 4.551111-6.826667l13.653333-20.48c4.551111-6.826667 11.377778-13.653333 15.928889-20.48 6.826667-6.826667 11.377778-13.653333 22.755556-20.48 2.275556-2.275556 6.826667-2.275556 9.102222-2.275556h9.102222c2.275556 0 4.551111 2.275556 6.826667 2.275556 2.275556 0 2.275556 2.275556 4.551111 2.275555l6.826667 6.826667c6.826667 9.102222 11.377778 15.928889 15.928889 25.031111 4.551111 6.826667 9.102222 13.653333 15.928888 18.204445 4.551111 4.551111 11.377778 4.551111 18.204445 4.551111H514.275556l2.275555-2.275556c2.275556 0 2.275556-2.275556 4.551111-2.275555s2.275556-2.275556 4.551111-2.275556c4.551111-4.551111 11.377778-11.377778 15.928889-18.204444 4.551111-6.826667 9.102222-15.928889 13.653334-25.031111 2.275556-4.551111 6.826667-9.102222 13.653333-13.653334 2.275556 0 4.551111 0 6.826667-2.275555h9.102222c4.551111 2.275556 6.826667 4.551111 9.102222 6.826666 6.826667 6.826667 13.653333 13.653333 18.204444 20.48l18.204445 18.204445c4.551111 6.826667 11.377778 11.377778 15.928889 15.928889 4.551111 4.551111 11.377778 9.102222 13.653333 11.377777h2.275556s2.275556 0 0 0l4.551111-4.551111 11.377778-11.377777c6.826667-9.102222 13.653333-15.928889 18.204444-20.48 4.551111-6.826667 9.102222-11.377778 11.377778-13.653334l4.551111-4.551111c2.275556-2.275556 6.826667-2.275556 9.102222 0 6.826667 0 6.826667 2.275556 6.826667 4.551111 0 0 0 2.275556-2.275556 6.826667-2.275556 4.551111-4.551111 11.377778-9.102222 18.204444-4.551111 6.826667-11.377778 15.928889-20.48 25.031111l-13.653333 13.653334c-2.275556 2.275556-6.826667 4.551111-11.377778 6.826666h-2.275556H662.186667c-2.275556 0-6.826667 0-9.102223-2.275555-4.551111-2.275556-9.102222-4.551111-11.377777-6.826667l-9.102223-9.102222c-4.551111-6.826667-11.377778-11.377778-15.928888-18.204444-4.551111-6.826667-11.377778-11.377778-18.204445-18.204445-6.826667-6.826667-11.377778-13.653333-18.204444-18.204444l-2.275556-2.275556s-2.275556 2.275556-4.551111 6.826667c-4.551111 6.826667-6.826667 15.928889-11.377778 25.031111-4.551111 9.102222-9.102222 18.204444-18.204444 25.031111-2.275556 2.275556-4.551111 4.551111-6.826667 4.551111-2.275556 2.275556-6.826667 4.551111-9.102222 4.551111l-2.275556 2.275556h-4.551111c-2.275556 0-6.826667 2.275556-9.102222 2.275555-11.377778 2.275556-25.031111-2.275556-34.133333-9.102222-9.102222-6.826667-15.928889-15.928889-20.48-25.031111-4.551111-9.102222-9.102222-15.928889-13.653334-22.755556 0-2.275556-2.275556-2.275556-2.275555-4.551111h-2.275556-2.275555 0c-4.551111 2.275556-11.377778 9.102222-15.928889 13.653334-6.826667 6.826667-11.377778 11.377778-15.928889 18.204444-4.551111 6.826667-9.102222 11.377778-13.653333 18.204445-2.275556 2.275556-4.551111 6.826667-9.102223 11.377777-2.275556 0-2.275556 2.275556-4.551111 2.275556H364.088889c-9.102222-2.275556-15.928889-9.102222-20.48-13.653333-4.551111-4.551111-9.102222-9.102222-13.653333-15.928889-6.826667-9.102222-13.653333-18.204444-15.928889-25.031111-4.551111-6.826667-6.826667-13.653333-9.102223-18.204445-2.275556-4.551111-2.275556-6.826667-2.275555-6.826667-2.275556-2.275556 0-6.826667 2.275555-9.102222-4.551111 2.275556 0 4.551111 2.275556 6.826667M175.217778 364.088889c-4.551111 0-6.826667-11.377778-2.275556-13.653333 22.755556-9.102222 54.613333-18.204444 93.297778-20.48 50.062222-2.275556 93.297778 9.102222 120.604444 20.48 4.551111 2.275556 4.551111 13.653333-2.275555 13.653333h-209.351111M639.431111 364.088889c-4.551111 0-6.826667-11.377778-2.275555-13.653333 22.755556-9.102222 54.613333-18.204444 93.297777-20.48 50.062222-2.275556 93.297778 9.102222 120.604445 20.48 4.551111 2.275556 4.551111 13.653333-2.275556 13.653333h-209.351111" fill="#3B2B05" p-id="18923"></path></svg>