<?xml version="1.0" standalone="no"?><!DOCTYPE svg PUBLIC "-//W3C//DTD SVG 1.1//EN" "http://www.w3.org/Graphics/SVG/1.1/DTD/svg11.dtd"><svg t="1778221202739" class="icon" viewBox="0 0 1024 1024" version="1.1" xmlns="http://www.w3.org/2000/svg" p-id="7361" xmlns:xlink="http://www.w3.org/1999/xlink" width="200" height="200"><path d="M367.7 437.6c41.1 14.2 90.8 22.5 144.4 22.5 52.9 0 102.1-8.1 142.9-22 0.1 2 0.1 4 0.1 6.1 0 79.4-64.4 143.8-143.8 143.8s-143.8-64.4-143.8-143.8c0-2.2 0.1-4.4 0.2-6.6m-60.1-88.4l-3.9 85.5c-0.2 3.4-0.2 6.6-0.2 9.5 0 28 5.5 55.3 16.4 80.9 10.5 24.8 25.4 47 44.5 66 19.1 19.1 41.3 34 66 44.5 25.7 10.9 52.9 16.4 80.9 16.4s55.3-5.5 80.9-16.4c24.8-10.5 47-25.4 66-44.5 19.1-19.1 34-41.3 44.5-66 10.9-25.7 16.4-52.9 16.4-80.9 0-2.7-0.1-5.5-0.2-8.7l-3.6-85.4-81 27.5c-35.7 12.1-78.1 18.6-122.3 18.6-44.8 0-87.6-6.6-123.6-19l-80.8-28zM512.1 207.2l137.5 50.5-137.4 44-142.7-44.1 142.6-50.4m0.4-68L165.7 261.7l346.7 107 334-107-333.9-122.5z" fill="#1990FF" p-id="7362"></path><path d="M512.6 426.2c-13.3 0-26.4-0.5-39.2-1.6 13.2 0.9 26.6 1.3 39.9 1.3 11.2 0 22.3-0.3 33.4-0.9-11.2 0.8-22.6 1.2-34.1 1.2z" fill="#1990FF" p-id="7363"></path><path d="M756.6 290l-60.7 19.4c6.6 6.4 10.2 13.4 10.2 20.5 0 35.3-86.3 63.9-192.8 63.9S320.6 365.3 320.6 330c0-6.7 3.1-13.1 8.9-19.2l-61.9-19.1c-7.2 11.9-11 24.5-11 37.5 0 71.2 114.6 129 256 129s256-57.8 256-129c0-13.7-4.2-26.8-12-39.2zM467.687 697.066l45.326-45.325 45.466 45.466-45.325 45.325z" fill="#1990FF" p-id="7364"></path><path d="M513 651.7L467.7 697l45.4 45.5 45.3-45.4-45.4-45.4z" fill="#1990FF" p-id="7365"></path><path d="M512.1 814.7V795l1.9 1.9h0.1v17.8z" fill="#1990FF" p-id="7366"></path><path d="M481.6 719.2h-1.5v127.5l33 23 32.9-23h0.1V719.6L514 751.7l-32.4-32.5z" fill="#1990FF" p-id="7367"></path><path d="M312.6 743.8l65.9 65.9H246.7l65.9-65.9m402.1 1.1l64.8 64.8H649.8l64.9-64.8m-402.1-91.6L147.7 818.2l55.5 55.5H823l55.5-55.5-163.8-163.8-200.6 200.5-201.5-201.6z" fill="#1990FF" p-id="7368"></path></svg>