<?xml version="1.0" standalone="no"?><!DOCTYPE svg PUBLIC "-//W3C//DTD SVG 1.1//EN" "http://www.w3.org/Graphics/SVG/1.1/DTD/svg11.dtd"><svg t="1778233082011" class="icon" viewBox="0 0 1024 1024" version="1.1" xmlns="http://www.w3.org/2000/svg" p-id="16430" xmlns:xlink="http://www.w3.org/1999/xlink" width="200" height="200"><path d="M512.361227 302.833143C400.624377 45.057195 82.937944 105.188714 80.83812 404.322605c-1.133823 164.314323 151.319357 225.795583 252.80882 291.315832 98.363262 63.847144 168.470993 150.887522 179.417299 187.991582 6.091742-23.731494 41.629119-70.375837 91.02718-117.563556-1.992377-1.240247-3.612271-2.588965-5.605671-3.826142-60.564377-39.207977-151.485133-75.821873-150.727886-173.917028 1.133823-178.553629 190.794417-230.323713 257.393231-76.467579 47.783283-110.714568 167.770028-106.72265 225.688135-30.414707 8.733918-23.407106 13.69593-49.345871 13.482059-78.951143C942.217369 102.598726 618.978477 55.305607 512.361227 302.833143zM830.591035 392.241452c-2.483564 1.945305-5.339612 2.861164-8.200776 2.861164-4.041036 0-8.139378-1.892093-10.782577-5.505387-4.5312-5.984295-3.347235-14.502295 2.642177-18.97926 13.157671-9.976212 20.75879-33.217543 17.577331-54.360072-3.990894-26.962072-21.676695-50.747801-21.894659-51.013861-4.422729-5.985318-3.342118-14.560624 2.750647-19.037589 5.986341-4.583388 14.506389-3.399423 19.036565 2.6432 0.971118 1.130753 21.947871 29.498848 27.180036 63.417355C863.323531 343.438956 851.727425 376.333134 830.591035 392.241452z" fill="#d81e06" p-id="16431"></path><path d="M702.45775 541.243021c-58.782801-135.679146-225.846748-104.026238-227.034806 53.389978-0.592494 86.498026 79.649038 118.746498 132.986827 153.314805 51.712779 33.43653 88.35942 101.920274 94.073562 121.388674 4.962012-19.142989 46.352701-88.815815 94.132914-122.413004 52.469002-36.726459 133.577275-66.868967 132.927475-153.261593C928.467203 435.979606 758.487857 411.06517 702.45775 541.243021zM878.476649 629.255541c-2.373047 1.454118-4.9088 2.210341-7.387247 2.210341-4.422729 0-8.738012-2.158153-11.379165-6.202259-4.098341-6.256494-2.317789-14.612813 3.987824-18.765389 6.635117-4.206812 11.164271-16.286941 10.408047-26.748201-1.130753-14.8318-10.135848-28.79686-10.190083-28.960589-3.990894-6.255471-2.211365-14.666024 4.097318-18.818601 6.203282-3.937682 14.613836-2.264577 18.766412 3.933589 0.538259 0.917906 12.726859 19.7406 14.399965 41.634236C902.794497 598.300528 893.414873 619.549481 878.476649 629.255541z" fill="#d81e06" p-id="16432"></path></svg>