<?xml version="1.0" standalone="no"?><!DOCTYPE svg PUBLIC "-//W3C//DTD SVG 1.1//EN" "http://www.w3.org/Graphics/SVG/1.1/DTD/svg11.dtd"><svg t="1778221399497" class="icon" viewBox="0 0 1024 1024" version="1.1" xmlns="http://www.w3.org/2000/svg" p-id="14135" xmlns:xlink="http://www.w3.org/1999/xlink" width="200" height="200"><path d="M370.773333 170.666667h282.453334a56.888889 56.888889 0 0 1 52.337777 34.417777L739.555556 284.444444H284.444444l33.991112-79.36A56.888889 56.888889 0 0 1 370.773333 170.666667z" fill="#14CFFF" p-id="14136"></path><path d="M184.888889 227.555556h56.888889a14.222222 14.222222 0 0 1 14.222222 14.222222v56.888889h-85.333333v-56.888889a14.222222 14.222222 0 0 1 14.222222-14.222222z" fill="#14CFFF" p-id="14137"></path><path d="M99.555556 256m113.777777 0l597.333334 0q113.777778 0 113.777777 113.777778l0 398.222222q0 113.777778-113.777777 113.777778l-597.333334 0q-113.777778 0-113.777777-113.777778l0-398.222222q0-113.777778 113.777777-113.777778Z" fill="#8CE6FF" p-id="14138"></path><path d="M512 568.888889m-213.333333 0a213.333333 213.333333 0 1 0 426.666666 0 213.333333 213.333333 0 1 0-426.666666 0Z" fill="#D5F6FF" p-id="14139"></path><path d="M512 568.888889m-142.222222 0a142.222222 142.222222 0 1 0 284.444444 0 142.222222 142.222222 0 1 0-284.444444 0Z" fill="#14CFFF" p-id="14140"></path><path d="M568.888889 512m-28.444445 0a28.444444 28.444444 0 1 0 56.888889 0 28.444444 28.444444 0 1 0-56.888889 0Z" fill="#DEF8FF" p-id="14141"></path><path d="M824.888889 355.555556m-28.444445 0a28.444444 28.444444 0 1 0 56.888889 0 28.444444 28.444444 0 1 0-56.888889 0Z" fill="#DEF8FF" p-id="14142"></path></svg>