<?xml version="1.0" standalone="no"?><!DOCTYPE svg PUBLIC "-//W3C//DTD SVG 1.1//EN" "http://www.w3.org/Graphics/SVG/1.1/DTD/svg11.dtd"><svg t="1784425420734" class="icon" viewBox="0 0 1189 1024" version="1.1" xmlns="http://www.w3.org/2000/svg" p-id="2941" xmlns:xlink="http://www.w3.org/1999/xlink" width="232.2265625" height="200"><path d="M9.909677 928.867097c-5.945806 0-9.909677-4.624516-9.909677-9.909678 0-5.945806 4.624516-9.909677 9.909677-9.909677h889.228388c5.945806 0 9.909677 4.624516 9.909677 9.909677 0 5.945806-4.624516 9.909677-9.909677 9.909678H9.909677zM950.007742 928.867097c-5.945806 0-9.909677-4.624516-9.909677-9.909678 0-5.945806 4.624516-9.909677 9.909677-9.909677h31.710968c5.945806 0 9.909677 4.624516 9.909677 9.909677 0 5.945806-4.624516 9.909677-9.909677 9.909678h-31.710968zM1064.96 928.867097c-5.945806 0-9.909677-4.624516-9.909677-9.909678 0-5.945806 4.624516-9.909677 9.909677-9.909677h114.291613c5.945806 0 9.909677 4.624516 9.909677 9.909677 0 5.945806-4.624516 9.909677-9.909677 9.909678h-114.291613zM302.575484 1024c-5.945806 0-9.909677-4.624516-9.909678-9.909677s4.624516-9.909677 9.909678-9.909678h89.187097c5.945806 0 9.909677 4.624516 9.909677 9.909678s-4.624516 9.909677-9.909677 9.909677H302.575484zM448.578065 1024c-5.945806 0-9.909677-4.624516-9.909678-9.909677s4.624516-9.909677 9.909678-9.909678h387.798709c5.945806 0 9.909677 4.624516 9.909678 9.909678s-4.624516 9.909677-9.909678 9.909677H448.578065zM1016.072258 670.554839c0-13.212903 20.48-13.212903 20.48 0v38.317419c0 5.945806-4.624516 9.909677-9.909677 9.909677h-38.31742c-13.212903 0-13.212903-20.48 0-20.48h27.747097v-27.747096z" fill="#CFCFCF" p-id="2942"></path><path d="M1036.552258 747.189677c0 13.212903-20.48 13.212903-20.48 0v-38.317419c0-5.945806 4.624516-9.909677 9.909677-9.909677h38.31742c13.212903 0 13.212903 20.48 0 20.48h-27.747097v27.747096zM50.869677 365.997419c0-13.212903 20.48-13.212903 20.48 0v38.31742c0 5.945806-4.624516 9.909677-9.909677 9.909677H23.122581c-13.212903 0-13.212903-20.48 0-20.48h27.747096v-27.747097zM992.289032 44.263226h34.353549c13.212903 0 13.212903 20.48 0 20.48h-34.353549V99.096774c0 13.212903-20.48 13.212903-20.48 0V64.743226h-34.353548c-13.212903 0-13.212903-20.48 0-20.48h34.353548V9.909677c0-13.212903 20.48-13.212903 20.48 0v34.353549z" fill="#CFCFCF" p-id="2943"></path><path d="M71.349677 441.971613c0 13.212903-20.48 13.212903-20.48 0v-38.317419c0-5.945806 4.624516-9.909677 9.909678-9.909678H99.096774c13.212903 0 13.212903 20.48 0 20.48h-27.747097v27.747097zM179.034839 776.91871c5.945806-5.945806 15.194839 3.303226 8.588387 8.588387l-13.212903 13.212903c-2.642581 2.642581-6.606452 2.642581-8.588388 0l-13.212903-13.212903c-5.945806-5.945806 3.303226-15.194839 8.588387-8.588387l8.588387 8.588387c0.660645 0 9.249032-8.588387 9.249033-8.588387z m-17.83742 35.674838c-5.945806 5.945806-15.194839-3.303226-8.588387-8.588387l13.212903-13.212903c2.642581-2.642581 6.606452-2.642581 8.588388 0l13.212903 13.212903c5.945806 5.945806-3.303226 15.194839-8.588387 8.588387l-8.588387-8.588387c0-0.660645-9.249032 8.588387-9.249033 8.588387zM290.683871 111.649032c5.945806-5.945806 15.194839 3.303226 8.588387 8.588387l-13.212903 13.212904c-2.642581 2.642581-6.606452 2.642581-8.588387 0l-13.212903-13.212904c-5.945806-5.945806 3.303226-15.194839 8.588387-8.588387l8.588387 8.588387 9.249032-8.588387z m-17.837419 36.335484c-5.285161 5.285161-15.194839-3.303226-8.588387-9.249032l13.212903-13.212903c2.642581-2.642581 6.606452-2.642581 8.588387 0l13.212903 13.212903c5.945806 5.945806-3.303226 15.194839-8.588387 8.588387L282.095484 138.735484l-9.249032 9.249032z" fill="#CFCFCF" p-id="2944"></path><path d="M335.607742 276.810323h340.232258l-37.656774 48.887742 104.381935 58.136774 1.981936 115.612903 67.385806-115.612903-67.385806-58.136774 66.064516-48.887742h17.837419c25.104516 0 45.584516 20.48 45.584516 45.584516v441.971613c0 25.104516-20.48 45.584516-45.584516 45.584516H335.607742c-25.104516 0-45.584516-20.48-45.584516-45.584516V322.394839c-0.660645-25.104516 19.819355-45.584516 45.584516-45.584516z" fill="#FFFFFF" p-id="2945"></path><path d="M828.449032 820.52129H335.607742c-31.050323 0-56.154839-25.104516-56.154839-56.154838V322.394839c0-31.050323 25.104516-56.154839 56.154839-56.154839h340.232258c3.963871 0 7.927742 1.981935 8.588387 5.945806 1.981935 3.303226 1.32129 7.927742-1.32129 10.570323l-30.389678 39.63871 93.811613 52.190967c3.303226 1.981935 5.285161 5.285161 5.285162 8.588388l1.32129 79.277419 44.923871-76.634839-60.779355-52.190968c-2.642581-1.981935-3.963871-5.285161-3.963871-7.927741 0-3.303226 1.981935-5.945806 4.624516-7.927742l66.725161-48.887742c1.981935-1.32129 3.963871-1.981935 5.945807-1.981936h17.837419c31.050323 0 56.154839 25.104516 56.154839 56.154839v441.971613c-0.660645 31.050323-25.104516 55.494194-56.154839 55.494193zM335.607742 286.72c-19.819355 0-35.674839 15.855484-35.674839 35.674839v441.971613c0 19.819355 15.855484 35.674839 35.674839 35.674838h492.84129c19.819355 0 35.674839-15.855484 35.674839-35.674838V322.394839c0-19.819355-15.855484-35.674839-35.674839-35.674839h-13.873548l-53.512258 39.63871 58.136774 49.548387c3.963871 3.303226 4.624516 8.588387 1.981935 12.552258L753.135484 504.072258c-2.642581 3.963871-7.267097 5.945806-11.230968 4.624516-3.963871-0.660645-7.267097-5.285161-7.267097-9.249032l-1.981935-109.667097-99.096774-54.833548c-2.642581-1.32129-4.624516-3.963871-5.285162-7.267097s0-5.945806 1.981936-7.927742l25.104516-32.371613-319.752258-0.660645z" fill="#CFCFCF" p-id="2946"></path><path d="M480.289032 708.872258c-3.303226 0-5.945806-1.32129-7.927742-3.303226-5.285161-4.624516-5.945806-12.552258-1.32129-17.837419 27.747097-33.032258 68.707097-51.530323 110.988387-51.530323s83.24129 18.498065 110.988387 51.530323c4.624516 5.285161 3.963871 13.212903-1.32129 17.837419s-13.212903 3.963871-17.837419-1.32129c-23.122581-26.425806-56.815484-42.28129-91.169033-42.28129-35.674839 0-69.367742 15.194839-91.829677 42.28129-3.303226 2.642581-6.606452 4.624516-10.570323 4.624516zM484.913548 480.289032H515.303226v72.010323h-30.389678V480.289032z m173.749678 0h30.389677v72.010323h-30.389677V480.289032z" fill="#CFCFCF" p-id="2947"></path><path d="M356.087742 378.549677c-9.249032-6.606452-12.552258-20.48-7.267097-31.710967 5.945806-10.570323 17.837419-14.534194 27.086452-7.927742L472.36129 402.993548c9.249032 6.606452 12.552258 20.48 7.267097 31.710968-5.945806 11.230968-17.837419 14.534194-27.086452 7.927742l-96.454193-64.082581z" fill="#FFFFFF" p-id="2948"></path><path d="M461.790968 451.88129c-4.624516 0-8.588387-1.32129-13.212903-4.624516L353.445161 383.174194c-11.891613-7.927742-15.855484-25.104516-8.588387-38.978065 3.963871-7.267097 9.249032-11.891613 16.516129-13.873548 6.606452-1.981935 13.212903-0.660645 19.15871 3.303225L475.664516 399.029677c11.891613 7.927742 15.855484 25.104516 8.588387 38.978065-3.963871 7.267097-9.249032 11.891613-16.516129 13.873548h-5.945806zM365.997419 341.553548c-1.32129 0-1.981935 0-3.303225 0.660646-3.963871 1.32129-7.267097 3.963871-8.588388 7.927741-4.624516 7.927742-1.981935 19.819355 5.285162 24.443871l95.793548 64.082581c3.303226 1.981935 6.606452 2.642581 9.249032 1.981936 3.963871-1.32129 7.267097-3.963871 8.588387-7.927742 4.624516-7.927742 1.981935-19.819355-5.285161-24.443871L372.603871 343.535484c-1.32129-1.32129-3.963871-1.981935-6.606452-1.981936z" fill="#CFCFCF" p-id="2949"></path><path d="M439.989677 325.037419c7.927742-7.927742 21.140645-7.927742 27.747097 1.981936 7.267097 9.249032 7.267097 24.443871-1.32129 32.371613l-79.277419 83.901935c-7.927742 7.927742-21.140645 7.927742-27.747097-1.981935-7.267097-9.249032-7.267097-24.443871 1.32129-32.371613l79.277419-83.901936z" fill="#FFFFFF" p-id="2950"></path><path d="M373.264516 454.523871h-1.32129c-7.267097-0.660645-13.212903-3.963871-18.498065-9.249032-8.588387-11.891613-7.927742-29.068387 1.981936-40.299355L436.025806 321.073548c5.285161-5.285161 11.230968-7.927742 18.498065-7.927742 7.267097 0.660645 13.212903 3.963871 18.498064 9.249033 8.588387 11.891613 7.927742 29.068387-1.981935 40.299355l-79.277419 83.901935c-5.285161 5.285161-11.891613 7.927742-18.498065 7.927742z m70.689032-124.861936l-79.277419 83.241291c-6.606452 6.606452-7.267097 17.837419-1.32129 25.104516 2.642581 3.303226 5.945806 5.285161 9.249032 5.945806 3.963871 0 7.267097-1.32129 9.249032-4.624516L462.451613 356.087742c6.606452-6.606452 7.267097-17.837419 1.32129-25.104516-2.642581-3.303226-5.945806-5.285161-9.249032-5.945807-3.963871 0-7.267097 1.32129-10.570323 4.624516z" fill="#CFCFCF" p-id="2951"></path></svg>