<?xml version="1.0" standalone="no"?><!DOCTYPE svg PUBLIC "-//W3C//DTD SVG 1.1//EN" "http://www.w3.org/Graphics/SVG/1.1/DTD/svg11.dtd"><svg t="1777896894511" class="icon" viewBox="0 0 1024 1024" version="1.1" xmlns="http://www.w3.org/2000/svg" p-id="16255" xmlns:xlink="http://www.w3.org/1999/xlink" width="200" height="200"><path d="M832 32H192A160.192 160.192 0 0 0 32 192v640A160.192 160.192 0 0 0 192 992h640a160.192 160.192 0 0 0 160-160V192A160.192 160.192 0 0 0 832 32zM384 640V384h256v256z m256 64v224H384V704zM96 384H320v256H96zM384 320V96h256V320z m320 64h224v256H704z m224-192v128H704V96h128A96.128 96.128 0 0 1 928 192zM192 96h128V320H96V192A96.128 96.128 0 0 1 192 96zM96 832v-128H320v224H192A96.128 96.128 0 0 1 96 832zM832 928h-128V704h224v128a96.128 96.128 0 0 1-96 96z" p-id="16256" fill="#8a8a8a"></path></svg>