<?xml version="1.0" standalone="no"?><!DOCTYPE svg PUBLIC "-//W3C//DTD SVG 1.1//EN" "http://www.w3.org/Graphics/SVG/1.1/DTD/svg11.dtd"><svg t="1777792148396" class="icon" viewBox="0 0 1024 1024" version="1.1" xmlns="http://www.w3.org/2000/svg" p-id="14926" xmlns:xlink="http://www.w3.org/1999/xlink" width="200" height="200"><path d="M778.6 959.9c-133.7 0-298.7-83.5-450.9-230.1-139.1-134.1-281-341.2-262-520.7 5.4-51.1 42.6-94 92.6-106.8l137.2-35C346 54.5 398.1 81 416.7 129.1c14.4 37.3 34.2 76.2 59.1 115.7 14.5 23 19.1 50.4 13 77-6.2 27-22.6 50-46.2 64.7L403 411.2c58 78.4 131.3 152.2 209.5 210.9l25.2-39.6c14.9-23.4 38-39.6 65.1-45.6 26.6-5.9 53.9-1.1 76.7 13.5 39.5 25.3 78.5 45.5 115.9 60 47.7 18.5 74.2 70.5 61.5 120.9l-33.6 133.2c-12.4 49-52.6 85.3-102.5 92.4-13.7 2-27.8 3-42.2 3zM321.3 146.7c-1.8 0-3.5 0.2-5.3 0.7l-137.2 35c-16.7 4.3-29.1 18.5-30.9 35.5-13.1 123.5 80 301.1 237.2 452.5 148 142.6 310.6 221.3 423.8 204.9 16.7-2.4 30.1-14.6 34.3-30.9l33.6-133.2c2.5-9.9-2.5-20.3-11.3-23.8C823 670.9 779.1 648.2 735 620c-5.4-3.5-10.8-3.2-14.4-2.5-5.5 1.2-10.2 4.5-13.2 9.3l-36.9 58.1c-9.1 14.3-23.9 24.4-40.6 27.7-16.6 3.2-33.9-0.6-47.6-10.4-98.2-70.2-190.4-163-259.7-261.3-9.6-13.6-13-29.9-9.8-46 2.6-13 10.8-31.5 34.8-46.4l51.2-31.9c6.5-4 8.7-10 9.4-13.2 0.8-3.6 1.1-9-2.4-14.5-27.7-43.9-50-87.7-66.3-130-2.7-7.6-10.1-12.2-18.2-12.2z" fill="#BDBDBD" p-id="14927"></path></svg>