<?xml version="1.0" standalone="no"?><!DOCTYPE svg PUBLIC "-//W3C//DTD SVG 1.1//EN" "http://www.w3.org/Graphics/SVG/1.1/DTD/svg11.dtd"><svg t="1777783990589" class="icon" viewBox="0 0 1024 1024" version="1.1" xmlns="http://www.w3.org/2000/svg" p-id="12049" xmlns:xlink="http://www.w3.org/1999/xlink" width="200" height="200"><path d="M511.699001 432.235156c-70.433862 0-127.623751 57.189888-127.623751 127.623751l0 0c0 9.029982 7.223986 15.651969 16.253968 15.651969 9.029982 0 16.253968-7.223986 16.253968-15.651969l0 0c0-52.975897 42.741917-95.717813 95.717813-95.717813 9.029982 0 16.253968-7.223986 16.253968-15.651969C527.952969 439.459142 520.728983 432.235156 511.699001 432.235156zM511.699001 304.611405c-141.469724 0-255.8495 114.379777-255.8495 255.247501 0 140.867725 114.379777 255.247501 255.8495 255.247501 141.469724 0 255.8495-114.379777 255.8495-255.247501C767.548501 418.991182 653.168724 304.611405 511.699001 304.611405zM657.382716 684.472663c-68.627866 80.065844-189.62963 89.697825-270.297472 20.46796C307.0194 636.312757 297.387419 515.310994 366.617284 435.24515c68.627866-80.065844 189.62963-89.697825 270.297472-20.46796C716.9806 483.405056 726.612581 604.40682 657.382716 684.472663zM943.332158 273.909465l-73.443857-12.039976c-40.333921-6.621987-74.045855-34.313933-89.697825-72.239859l-19.263962-48.159906c-14.447972-36.721928-49.363904-60.199882-89.095826-60.199882L352.169312 81.269841c-39.129924 0-74.045855 23.477954-89.095826 60.199882l-19.263962 48.159906c-15.049971 37.925926-49.363904 65.617872-89.697825 72.239859l-73.443857 12.039976C34.313933 281.73545 0.601999 321.467372 0.601999 368.42328l0 478.589065c0 52.975897 42.741917 95.717813 95.717813 95.717813l830.758377 0c52.975897 0 95.717813-42.741917 95.717813-95.717813L1022.796002 368.42328C1023.398001 321.467372 989.686067 281.73545 943.332158 273.909465zM747.68254 388.289242c0.601999 0.601999 1.805996 2.407995 3.009994 4.815991-1.203998-1.805996-2.407995-3.611993-4.213992-5.417989L747.68254 388.289242zM488.823045 265.481481c0 0.601999 0 1.203998 0.601999 1.805996-1.203998 0-1.805996 0-3.009994 0C487.619048 266.685479 488.221046 266.08348 488.823045 265.481481zM511.699001 840.992357c-26.487948 0-51.771899-4.213992-75.851852-10.835979-20.46796-7.825985-43.945914-17.457966-66.821869-29.497942-81.269841-49.363904-135.449735-138.45973-135.449735-240.79953 0-85.483833 37.925926-161.335685 97.52381-213.107584 9.631981-7.223986 19.865961-15.049971 28.895944-22.273956 43.945914-28.895944 95.717813-45.751911 151.703704-45.751911 153.5097 0 278.123457 125.817754 278.123457 281.133451S665.208701 840.992357 511.699001 840.992357z" p-id="12050" fill="#bfbfbf"></path></svg>