<?xml version="1.0" standalone="no"?><!DOCTYPE svg PUBLIC "-//W3C//DTD SVG 1.1//EN" "http://www.w3.org/Graphics/SVG/1.1/DTD/svg11.dtd"><svg t="1777791610968" class="icon" viewBox="0 0 1024 1024" version="1.1" xmlns="http://www.w3.org/2000/svg" p-id="13939" xmlns:xlink="http://www.w3.org/1999/xlink" width="200" height="200"><path d="M512 109c106.039 0 192 85.961 192 192s-85.961 192-192 192-192-85.961-192-192 85.961-192 192-192z m0 64c-70.692 0-128 57.308-128 128 0 70.692 57.308 128 128 128 70.692 0 128-57.308 128-128 0-70.692-57.308-128-128-128zM512 522.529c176.908 0 320.32 143.412 320.32 320.32 0 176.907-640.64 176.907-640.64 0 0-176.908 143.412-320.32 320.32-320.32z m0 64c-141.561 0-256.32 114.758-256.32 256.32 0 2.74 1.53 5.892 7.53 11.572 10.014 9.482 27.28 19.263 50.683 27.88 50.609 18.633 122.55 29.228 198.107 29.228s147.498-10.595 198.107-29.229c23.402-8.616 40.67-18.397 50.684-27.879l0.648-0.62c5.463-5.293 6.88-8.314 6.88-10.953 0-141.56-114.758-256.319-256.319-256.319z" fill="#979797" p-id="13940"></path></svg>