<?xml version="1.0" standalone="no"?><!DOCTYPE svg PUBLIC "-//W3C//DTD SVG 1.1//EN" "http://www.w3.org/Graphics/SVG/1.1/DTD/svg11.dtd"><svg t="1778508593554" class="icon" viewBox="0 0 1024 1024" version="1.1" xmlns="http://www.w3.org/2000/svg" p-id="3376" xmlns:xlink="http://www.w3.org/1999/xlink" width="200" height="200"><path d="M512 750.933333c-39.822222 0-79.644444 34.133333-79.644444 79.644445 0 39.822222 34.133333 79.644444 79.644444 79.644444s79.644444-34.133333 79.644444-79.644444c-5.688889-45.511111-39.822222-79.644444-79.644444-79.644445zM512 557.511111c-68.266667 0-136.533333 28.444444-182.044444 73.955556-17.066667 17.066667-17.066667 39.822222 0 51.2 17.066667 17.066667 39.822222 17.066667 51.2 0 34.133333-34.133333 85.333333-51.2 130.844444-51.2s96.711111 17.066667 130.844444 51.2c5.688889 5.688889 17.066667 11.377778 28.444445 11.377777s22.755556-5.688889 28.444444-11.377777c17.066667-17.066667 11.377778-39.822222 0-51.2-51.2-51.2-119.466667-73.955556-187.733333-73.955556z" fill="#8a8a8a" p-id="3377"></path><path d="M512 364.088889c-119.466667 0-233.244444 45.511111-318.577778 125.155555-17.066667 17.066667-17.066667 39.822222 0 51.2 17.066667 17.066667 39.822222 17.066667 51.2 0 73.955556-62.577778 170.666667-102.4 267.377778-102.4s193.422222 34.133333 267.377778 108.088889c5.688889 5.688889 17.066667 11.377778 22.755555 11.377778 11.377778 0 22.755556-5.688889 28.444445-11.377778 17.066667-17.066667 11.377778-39.822222 0-51.2-85.333333-85.333333-199.111111-130.844444-318.577778-130.844444z" fill="#8a8a8a" p-id="3378"></path><path d="M961.422222 352.711111C836.266667 233.244444 676.977778 170.666667 512 170.666667S182.044444 233.244444 62.577778 352.711111c-17.066667 11.377778-17.066667 34.133333-5.688889 51.2 17.066667 17.066667 39.822222 17.066667 56.888889 0 108.088889-102.4 250.311111-159.288889 398.222222-159.288889s290.133333 56.888889 398.222222 159.288889c5.688889 5.688889 17.066667 11.377778 28.444445 11.377778s22.755556-5.688889 28.444444-11.377778c11.377778-17.066667 11.377778-39.822222-5.688889-51.2z" fill="#8a8a8a" p-id="3379"></path></svg>