<?xml version="1.0" standalone="no"?><!DOCTYPE svg PUBLIC "-//W3C//DTD SVG 1.1//EN" "http://www.w3.org/Graphics/SVG/1.1/DTD/svg11.dtd"><svg t="1777897568196" class="icon" viewBox="0 0 1243 1024" version="1.1" xmlns="http://www.w3.org/2000/svg" p-id="23354" xmlns:xlink="http://www.w3.org/1999/xlink" width="242.7734375" height="200"><path d="M621.617021 96c194.042553 0 391.489362 70.808511 539.914894 219.234043 19.06383 19.06383 49.021277 19.06383 68.085106 0 8.851064-8.851064 14.297872-21.106383 14.297873-34.042554s-4.765957-25.191489-14.297873-34.042553C1062.808511 80.340426 840.851064 0 622.297872 0 403.06383 0 181.787234 80.340426 14.978723 247.148936 6.12766 256 0.680851 268.255319 0.680851 281.191489s4.765957 25.191489 14.297872 34.042554c19.06383 19.06383 49.021277 19.06383 68.085107 0 148.425532-148.425532 345.191489-219.234043 539.914893-219.234043z" fill="#cdcdcd" p-id="23355"></path><path d="M1095.489362 471.829787c-16.340426 19.06383-44.93617 22.468085-64.680851 7.489362-125.276596-92.595745-259.404255-157.957447-408.510639-157.957447-149.787234 0-283.234043 65.361702-408.510638 157.957447-20.425532 14.978723-48.340426 11.574468-64.680851-7.489362-8.851064-10.212766-12.93617-23.148936-10.893617-36.765957 1.361702-13.617021 8.170213-25.191489 19.06383-33.361702 142.297872-104.851064 296.170213-177.021277 465.702127-177.021277s323.404255 71.489362 465.702128 177.021277c10.893617 8.170213 17.702128 19.744681 19.06383 33.361702s-2.042553 25.87234-10.893617 36.765957z" fill="#cdcdcd" p-id="23356"></path><path d="M621.617021 542.638298c61.957447 0 119.148936 11.574468 173.617022 34.723404 19.744681-29.957447 45.617021-54.468085 75.574468-70.808511-78.297872-39.489362-160-59.234043-249.19149-59.234042-121.191489 0-229.446809 36.765957-332.255319 110.297872-11.574468 8.170213-18.382979 19.06383-19.744681 33.361702-2.042553 13.617021 2.042553 26.553191 10.893617 36.765958 16.340426 19.06383 43.574468 22.468085 64 8.170213 86.468085-61.276596 174.978723-92.595745 277.106383-92.595745zM621.617021 758.468085h-2.042553c-48.340426 0-96 14.297872-136.170213 40.851064-20.425532 13.617021-46.978723 9.531915-63.319149-8.851064-9.531915-10.893617-12.93617-23.829787-10.893617-38.127659s8.851064-25.87234 21.106383-33.361703c55.829787-36.765957 121.191489-57.191489 189.276596-57.191489h4.085106c50.382979 0 99.404255 10.893617 144.340426 32-8.851064 34.723404-9.531915 72.170213-0.680851 109.617021l-8.170213-4.085106c-40.170213-26.553191-87.148936-40.851064-136.170213-40.851064h-2.042553zM549.446809 949.106383c-0.680851 26.553191 12.93617 51.06383 35.404255 64.680851s51.06383 13.617021 73.531915 0 36.085106-38.12766 35.404255-64.680851c-1.361702-38.808511-33.361702-69.446809-72.170213-69.446809s-70.808511 30.638298-72.170212 69.446809z" fill="#cdcdcd" p-id="23357"></path><path d="M988.595745 886.468085v19.06383h-73.531915v-21.106383c-1.361702-47.659574 21.106383-87.829787 68.765957-120.510638 42.893617-28.595745 57.191489-59.234043 56.510639-92.595745-0.680851-38.12766-23.148936-72.170213-66.723405-76.255319-43.574468-4.765957-92.595745 40.170213-103.489361 100.085106l-73.531915-23.829787c20.425532-91.914894 96.680851-153.191489 181.787234-147.744681s140.255319 58.553191 142.297872 149.787234c0.680851 51.744681-28.595745 99.404255-89.87234 142.297872-31.319149 20.425532-42.893617 44.255319-42.893617 70.808511z m-73.531915 66.042553h73.531915v70.808511h-73.531915v-70.808511z" p-id="23358"></path></svg>