<?xml version="1.0" standalone="no"?><!DOCTYPE svg PUBLIC "-//W3C//DTD SVG 1.1//EN" "http://www.w3.org/Graphics/SVG/1.1/DTD/svg11.dtd"><svg t="1777794282562" class="icon" viewBox="0 0 1024 1024" version="1.1" xmlns="http://www.w3.org/2000/svg" p-id="19360" xmlns:xlink="http://www.w3.org/1999/xlink" width="200" height="200"><path d="M902.656 643.008l0.064 0.128a69.12 69.12 0 0 1-33.728 88.576L542.08 889.984a69.12 69.12 0 0 1-60.224 0L154.88 731.712l-0.96-0.512a69.12 69.12 0 0 1-34.24-84.16l0.064-0.128 358.144 168.96 34.048 16.448 336.128-162.816-0.128-0.128 54.656-26.368z m0-155.712l0.128 0.128A69.12 69.12 0 0 1 868.992 576L542.08 734.272a69.12 69.12 0 0 1-60.224 0L155.008 576l-1.024-0.512a69.12 69.12 0 0 1-34.176-84.16v-0.128l358.144 168.96 34.048 16.384 336.192-162.752-0.192-0.128 54.72-26.368z m-358.784-352l326.848 158.272a73.088 73.088 0 0 1 0 131.584L543.872 583.488a73.088 73.088 0 0 1-63.744 0L153.216 425.152a73.088 73.088 0 0 1 0-131.584l326.912-158.272c20.096-9.728 43.584-9.728 63.744 0zM512 192L177.024 359.04 512 525.952l334.976-167.04L512 192z" fill="#bfbfbf" p-id="19361"></path></svg>